# xmcd
#
# Track frame offsets:
#	225
#	18859
#	40256
#	59213
#	80614
#	102995
#	115421
#	138147
#	160712
#	175377
#
# Disc length: 2728 seconds
#
# Revision: 1
# Processed by: cddbd v1.5.1PL0 Copyright (c) Steve Scherf et al.
# Submitted via: EasyCDDAExtractor 6.0.0.1
#
DISCID=830aa50a
DTITLE=Ricardo Pegnotti - En Buenos Aires hoy
DYEAR=2002
DGENRE=Blues
TTITLE0=Es demasiado
TTITLE1=En soledad
TTITLE2=En Buenos Aires hoy
TTITLE3=Nada
TTITLE4=Mala noche
TTITLE5=Si hace falta
TTITLE6=Estamos apretados
TTITLE7=Sólo intento ser feliz
TTITLE8=Como un detective
TTITLE9=Larga vida
EXTD=
EXTT0=
EXTT1=
EXTT2=
EXTT3=
EXTT4=
EXTT5=
EXTT6=
EXTT7=
EXTT8=
EXTT9=
PLAYORDER=
